When two gunmen, Virgil Cole (Ed Harris) and Everett Hitch (Viggo Mortenson), arrive in Appaloosa they find a small, dusty and lawless town suffering at the hands of renegade rancher Randall Bragg (Jeremy Irons). Bragg has not only taken supplies, horses, and women for his own, but also has left the city marshal and a deputy for dead. In Bragg they an unusually wily adversary who raises the stakes by playing with emotions. It is now up to Cole and Hitch to stand against the actions of the renegade rancher, which have already taken their toll on the town.

Format : MPEG-4
Format profile : Base Media / Version 2
Codec ID : mp42
File size : 1 000 MiB
Duration : 1h 50mn
Overall bit rate : 1 263 Kbps
Encoded date : UTC 2010-02-09 23:05:24
Tagged date : UTC 2010-02-10 03:04:24
Writing application : HandBrake 0.9.3 2008112300

Video
ID : 1
Format : AVC
Format/Info : Advanced Video Codec
Format profile : Main@L4.0
Format settings, CABAC : Yes
Format settings, ReFrames : 3 frames
Codec ID : avc1
Codec ID/Info : Advanced Video Coding
Duration : 1h 50mn
Bit rate mode : Variable
Bit rate : 1 099 Kbps
Width : 720 pixels
Height : 428 pixels
Display aspect ratio : 2.35:1
Original display aspect ratio : 2.35:1
Frame rate mode : Variable
Frame rate : 25.000 fps
Minimum frame rate : 12.500 fps
Maximum frame rate : 25.000 fps
Resolution : 24 bits
Colorimetry : 4:2:0
Scan type : Progressive
Bits/(Pixel*Frame) : 0.143
Stream size : 870 MiB (87%)
Writing library : x264 core 65


Audio
ID : 2
Format : AAC
Format/Info : Advanced Audio Codec
Format version : Version 4
Format profile : LC
Format settings, SBR : No
Codec ID : 40
Duration : 1h 50mn
Bit rate mode : Variable
Bit rate : 160 Kbps
Maximum bit rate : 200 Kbps
Channel(s) : 2 channels
Channel positions : L R
Sampling rate : 48.0 KHz
Resolution : 16 bits
Stream size : 127 MiB (13%)
Language : English
Encoded date : UTC 2010-02-09 23:05:24
Tagged date : UTC 2010-02-10 03:04:23
